<svg width="145" height="135" viewBox="0 0 145 135" fill="none" xmlns="http://www.w3.org/2000/svg">
<g clip-path="url(#clip0_50_48)">
<path d="M76.2079 35.7095H46.0099C46.0099 35.7095 47.5012 49.9006 55.9941 52.2796C68.1711 55.6916 55.7517 70.7983 72.7971 77.3788C74.9898 85.4208 76.2079 120.51 69.3872 124.411C62.5685 128.309 55.9941 126.847 55.9941 130.257H76.2079H96.4169C96.4169 126.847 89.8444 128.309 83.0276 124.411C76.2079 120.51 77.4241 85.4208 79.6149 77.3788C96.6612 70.7993 84.2438 55.6916 96.4169 52.2796C104.913 49.9006 106.404 35.7095 106.404 35.7095H76.2079Z" stroke="white" stroke-miterlimit="10"/>
<path d="M47.152 41.1016C48.422 45.3849 50.9938 50.8794 55.9941 52.2792C67.9402 55.6268 56.2327 70.2232 71.8792 76.9895H80.5337C96.1802 70.2242 84.4747 55.6268 96.4169 52.2792C101.419 50.8784 103.992 45.3839 105.263 41.1016H47.152Z" fill="white"/>
<path d="M69.3112 71.7679C69.3112 71.7679 84.5661 74.0438 87.2437 59.0469C89.2517 72.3032 76.002 75.1154 69.3112 71.7679Z" fill="#2F3332"/>
<path d="M73.1916 69.7584C73.1916 69.7584 81.0879 69.8922 84.2996 61.7231C83.8377 70.1107 74.9321 69.7584 73.1916 69.7584Z" fill="#2F3332"/>
<path d="M91.6658 53.6744C100.754 53.6744 108.122 46.3019 108.122 37.2073C108.122 28.1128 100.754 20.7402 91.6658 20.7402C82.5771 20.7402 75.2092 28.1128 75.2092 37.2073C75.2092 46.3019 82.5771 53.6744 91.6658 53.6744Z" fill="#2F3332"/>
<path d="M90.8326 52.005C99.9213 52.005 107.289 44.6324 107.289 35.5379C107.289 26.4434 99.9213 19.0708 90.8326 19.0708C81.7438 19.0708 74.376 26.4434 74.376 35.5379C74.376 44.6324 81.7438 52.005 90.8326 52.005Z" fill="white"/>
<path d="M97.9015 23.2355C104.695 27.1415 107.032 35.8179 103.127 42.614C99.2225 49.4102 90.5526 51.7497 83.7608 47.8428C76.9709 43.9349 74.63 35.2595 78.5354 28.4605C82.4397 21.6672 91.1116 19.3277 97.9015 23.2355Z" fill="#2F3332"/>
<path d="M90.8826 47.12C97.325 47.12 102.548 41.894 102.548 35.4474C102.548 29.0009 97.325 23.7749 90.8826 23.7749C84.4401 23.7749 79.2175 29.0009 79.2175 35.4474C79.2175 41.894 84.4401 47.12 90.8826 47.12Z" fill="white"/>
<path d="M90.8316 22.3276V48.4031" stroke="#2F3332" stroke-miterlimit="10"/>
<path d="M100.044 26.147L81.6181 44.5848" stroke="#2F3332" stroke-miterlimit="10"/>
<path d="M81.6181 26.147L100.044 44.5848" stroke="#2F3332" stroke-miterlimit="10"/>
<path d="M103.861 35.3657H77.8022" stroke="#2F3332" stroke-miterlimit="10"/>
</g>
<defs>
<clipPath id="clip0_50_48">
<rect width="144.976" height="133.741" fill="white" transform="translate(0 0.885254)"/>
</clipPath>
</defs>
</svg>
